<?xml version="1.0" encoding="UTF-8"?>
<!DOCTYPE svg PUBLIC "-//W3C//DTD SVG 1.1//EN" "http://www.w3.org/Graphics/SVG/1.1/DTD/svg11.dtd">
<!-- https://icons8.com -->
<svg xmlns="http://www.w3.org/2000/svg" xmlns:xlink="http://www.w3.org/1999/xlink" viewBox="0 0 50 50" version="1.1">
  <g id="surface1">
    <path style=" " d="M 34.15625 6 C 31.523438 6 29.050781 7.011719 27.1875 8.875 L 26.90625 9.15625 L 40.84375 23.09375 L 41.125 22.8125 C 44.96875 18.96875 44.96875 12.71875 41.125 8.875 C 39.265625 7.011719 36.789063 6 34.15625 6 Z M 35.15625 8.625 C 36.199219 8.625 37.242188 9.023438 38 9.78125 C 38.390625 10.171875 38.390625 10.796875 38 11.1875 C 37.609375 11.578125 36.953125 11.578125 36.5625 11.1875 C 35.800781 10.425781 34.480469 10.425781 33.71875 11.1875 C 33.523438 11.382813 33.257813 11.46875 33 11.46875 C 32.742188 11.46875 32.507813 11.382813 32.3125 11.1875 C 31.921875 10.796875 31.921875 10.171875 32.3125 9.78125 C 33.070313 9.023438 34.113281 8.625 35.15625 8.625 Z M 24.09375 10.03125 C 23.578125 10.03125 23.0625 10.21875 22.6875 10.59375 L 11.125 22.15625 L 27.84375 38.875 L 39.40625 27.3125 C 40.179688 26.539063 40.179688 25.273438 39.40625 24.5 L 25.5 10.59375 C 25.125 10.21875 24.609375 10.03125 24.09375 10.03125 Z M 25.21875 15.40625 C 25.472656 15.40625 25.742188 15.523438 25.9375 15.71875 C 26.328125 16.109375 26.328125 16.734375 25.9375 17.125 L 18.71875 24.34375 C 18.523438 24.539063 18.257813 24.65625 18 24.65625 C 17.742188 24.65625 17.476563 24.539063 17.28125 24.34375 C 16.890625 23.953125 16.890625 23.328125 17.28125 22.9375 L 24.53125 15.71875 C 24.726563 15.523438 24.964844 15.40625 25.21875 15.40625 Z M 8.75 24.53125 L 5.59375 27.6875 L 22.3125 44.40625 L 25.46875 41.25 L 25.03125 38.90625 L 11.09375 24.96875 Z "></path>
  </g>
</svg>