<?xml version="1.0" encoding="UTF-8"?>
<!DOCTYPE svg PUBLIC "-//W3C//DTD SVG 1.1//EN" "http://www.w3.org/Graphics/SVG/1.1/DTD/svg11.dtd">
<!-- Creator: CorelDRAW X6 -->
<svg xmlns="http://www.w3.org/2000/svg" xml:space="preserve" width="2.48926in" height="2.11023in" version="1.1" style="shape-rendering:geometricPrecision; text-rendering:geometricPrecision; image-rendering:optimizeQuality; fill-rule:evenodd; clip-rule:evenodd"
viewBox="0 0 2489 2110"
 xmlns:xlink="http://www.w3.org/1999/xlink">
 <defs>
  <style type="text/css">
   <![CDATA[
    .fil0 {fill:none}
    .fil1 {fill:black}
   ]]>
  </style>
 </defs>
 <g id="__x0023_Layer_x0020_1">
  <metadata id="CorelCorpID_0Corel-Layer"/>
  <g id="_318294896">
   <path class="fil0" d="M884 2065c15,-74 20,-149 19,-225 -1,-52 28,-99 66,-100 47,-2 95,-12 143,0 44,11 89,9 124,-27 7,-7 11,-5 17,1 31,32 70,36 109,28 39,-7 77,-8 116,-6 76,4 116,43 107,118 -6,55 4,107 10,160 2,17 -1,36 13,54 -1,-52 7,-101 24,-148 24,-63 30,-128 16,-194 -16,-75 -51,-134 -128,-161 -42,-15 -83,-30 -127,-37 -12,-2 -26,-3 -24,-24 3,-31 -17,-57 -49,-67 -46,-15 -94,-18 -141,-4 -27,8 -59,24 -59,53 1,38 -20,41 -46,45 -14,2 -28,5 -42,10 -55,19 -115,33 -151,84 -53,75 -64,159 -40,246 17,64 38,126 42,193z"/>
  </g>
  <g id="_318294512">
   <path class="fil0" d="M907 284c15,5 27,-1 38,-4 149,-34 299,-38 450,-24 55,5 108,14 162,27 6,1 17,10 19,-5 3,-19 -34,-68 -55,-72 -186,-37 -372,-37 -557,0 -16,3 -28,10 -34,27 -6,17 -15,33 -23,51z"/>
  </g>
  <g id="_318294608">
   <path class="fil0" d="M1814 494c-68,-9 -128,-17 -189,-24 -44,-5 -89,-8 -133,-11 -7,0 -15,-3 -20,5 -4,7 3,11 7,16 38,55 77,110 116,166 7,10 13,14 24,5 63,-51 126,-101 195,-157z"/>
  </g>
  <g id="_318295520">
   <path class="fil0" d="M1023 459c-121,3 -231,21 -350,35 69,56 133,107 196,158 9,7 15,5 20,-3 43,-61 85,-122 133,-190z"/>
  </g>
  <g id="_318295856">
   <path class="fil0" d="M1085 464c50,57 99,114 149,170 14,16 20,-1 26,-8 43,-48 85,-96 127,-145 5,-6 15,-11 11,-20 -4,-9 -15,-6 -22,-6 -85,0 -170,-1 -255,0 -11,0 -23,0 -35,9z"/>
  </g>
  <g id="_318295400">
   <path class="fil0" d="M1876 503c35,69 67,130 97,192 8,17 16,14 28,6 42,-29 84,-57 125,-86 18,-13 38,-22 56,-42 -100,-32 -200,-52 -307,-69z"/>
  </g>
  <g id="_318295928">
   <path class="fil0" d="M300 573c68,46 129,88 190,130 9,6 16,8 22,-4 32,-64 64,-127 99,-196 -106,16 -205,37 -311,70z"/>
  </g>
  <g id="_318295280">
   <path class="fil0" d="M846 699c-3,-4 -3,-7 -6,-9 -59,-48 -119,-96 -178,-145 -13,-11 -19,-5 -25,7 -28,56 -56,111 -84,166 -3,6 -10,13 -6,20 5,8 15,3 23,2 67,-12 134,-22 202,-30 24,-3 49,0 73,-11z"/>
  </g>
  <g id="_318295472">
   <path class="fil0" d="M1924 742c14,2 20,-2 13,-17 -30,-58 -59,-116 -89,-175 -6,-13 -12,-14 -23,-5 -57,46 -114,93 -172,139 -4,4 -12,7 -9,14 2,7 10,6 16,7 14,2 29,3 43,4 74,8 148,18 221,33z"/>
  </g>
  <g id="_318296648">
   <path class="fil0" d="M1513 693c13,0 26,0 38,0 15,1 20,-2 10,-17 -38,-54 -76,-108 -114,-163 -10,-15 -17,-13 -28,0 -42,49 -84,97 -126,145 -5,6 -15,11 -10,20 5,8 15,6 23,6 69,2 139,0 207,8z"/>
  </g>
  <g id="_318296792">
   <path class="fil0" d="M915 694c98,-4 188,-10 277,-9 13,0 21,-6 9,-19 -45,-52 -91,-104 -137,-156 -8,-9 -14,-9 -22,1 -41,59 -82,118 -128,183z"/>
  </g>
  <g id="_318296480">
   <path class="fil0" d="M1027 87c147,-22 288,-21 431,-4 -27,-32 -50,-69 -92,-76 -60,-9 -122,-6 -183,-6 -67,0 -117,24 -156,86z"/>
  </g>
  <g id="_318296672">
   <path class="fil0" d="M485 756c-62,-43 -118,-79 -172,-119 -24,-17 -27,-5 -29,15 -6,48 -11,96 -17,144 -2,18 3,22 20,16 62,-23 126,-39 198,-57z"/>
  </g>
  <g id="_318296624">
   <path class="fil0" d="M2008 757c68,20 135,34 198,58 15,6 15,-6 13,-16 -6,-48 -12,-96 -17,-145 -2,-25 -8,-31 -31,-14 -33,25 -68,47 -102,71 -20,14 -42,25 -62,46z"/>
  </g>
  <g id="_318296168">
   <path class="fil0" d="M222 787c8,-68 15,-129 23,-195 -66,25 -125,49 -179,91 53,35 102,68 156,104z"/>
  </g>
  <g id="_318297368">
   <path class="fil0" d="M2421 683c-52,-40 -108,-64 -165,-86 -19,-7 -13,8 -12,15 6,51 12,103 19,154 1,10 3,20 17,11 46,-31 93,-62 142,-95z"/>
  </g>
  <g id="_318297272">
   <path class="fil0" d="M2410 931c7,-60 7,-116 8,-171 0,-15 -6,-16 -17,-9 -39,26 -77,51 -116,77 -8,5 -12,13 -1,19 45,21 85,49 126,84z"/>
  </g>
  <g id="_318296936">
   <path class="fil0" d="M72 742c0,63 0,119 0,175 0,13 7,14 16,6 33,-33 73,-54 113,-75 8,-4 15,-10 3,-18 -42,-29 -85,-57 -132,-89z"/>
  </g>
  <g id="_318296144">
   <path class="fil0" d="M2463 724c0,64 0,119 0,174 10,-55 55,-110 0,-174z"/>
  </g>
  <g id="_318297560">
   <path class="fil0" d="M1260 2049c1,-13 -1,-30 -6,-45 -2,-6 -4,-12 -11,-12 -6,0 -8,6 -9,11 -8,32 -6,65 -1,98 1,5 4,10 10,10 6,0 9,-4 11,-9 7,-16 7,-32 7,-52z"/>
  </g>
  <g id="_318297128">
   <path class="fil0" d="M23 909c0,-63 0,-119 0,-175 -49,58 -8,112 0,175z"/>
  </g>
  <g id="_318298016">
   <path class="fil0" d="M1225 1285c18,-20 16,-69 -3,-83 -3,-2 -7,-2 -11,-3 -1,5 -3,10 -2,15 5,24 11,47 16,72z"/>
  </g>
  <path class="fil1" d="M884 2065c-4,-67 -25,-129 -42,-193 -23,-87 -12,-171 40,-246 36,-52 96,-65 151,-84 14,-5 28,-8 42,-10 26,-4 47,-7 46,-45 -1,-29 31,-45 59,-53 47,-15 94,-12 141,4 31,10 51,37 49,67 -2,21 12,22 24,24 44,7 85,23 127,37 77,27 112,86 128,161 14,66 8,130 -16,194 -18,47 -26,96 -24,148 -14,-17 -11,-36 -13,-54 -6,-53 -16,-105 -10,-160 9,-75 -31,-114 -107,-118 -39,-2 -77,-1 -116,6 -40,7 -79,3 -109,-28 -6,-6 -10,-8 -17,-1 -35,36 -80,38 -124,27 -48,-12 -96,-2 -143,0 -37,1 -66,48 -66,100 1,76 -4,151 -19,225z"/>
  <path class="fil1" d="M907 284c8,-17 17,-34 23,-51 6,-17 18,-24 34,-27 186,-37 372,-37 557,0 20,4 57,52 55,72 -2,15 -13,7 -19,5 -53,-12 -107,-22 -162,-27 -151,-14 -301,-11 -450,24 -12,3 -23,9 -38,4z"/>
  <path class="fil1" d="M871 1131c1,-7 7,-10 14,-9 7,1 7,6 8,12l-22 -2z"/>
  <path class="fil1" d="M1012 1194c61,36 120,77 188,98 10,3 24,7 19,19 -4,10 -18,5 -28,2 -47,-16 -92,-36 -140,-60 -5,34 -21,55 -53,60 -25,4 -45,-8 -56,-30 -15,-30 -6,-56 20,-79 -32,-14 -53,-47 -93,-37 -11,3 -19,6 -26,14 -17,20 -46,18 -57,-5 -19,-37 -11,-8 -10,-47 0,-7 7,-11 13,-10 8,1 9,7 9,14 0,23 2,-23 2,2 21,-7 36,-22 57,-23l154 84z"/>
  <path class="fil1" d="M1627 1089c11,-4 13,13 23,22 10,9 19,6 31,13 9,5 18,22 25,-4 2,-10 17,-9 20,3 5,22 1,44 -19,58 -18,13 -39,11 -54,-3 -25,-22 -48,-19 -73,-4 -9,5 -17,12 -26,17 -11,6 -16,11 -5,23 19,20 23,43 9,68 -12,21 -31,31 -54,29 -27,-3 -45,-19 -52,-46 -1,-4 -3,-7 -5,-12 -45,21 -88,42 -134,57 -5,2 -10,4 -15,4 -6,1 -13,2 -16,-5 -3,-8 4,-11 10,-14 25,-11 50,-23 75,-34 53,-22 97,-58 148,-83 6,-3 8,-8 6,-15l109 -75z"/>
  <path class="fil1" d="M1544 1152c12,7 25,-19 41,-26 15,-6 4,-27 18,-32 12,-4 17,1 17,0l-76 58z"/>
  <path class="fil1" d="M1814 494c-69,56 -132,106 -195,157 -11,9 -17,5 -24,-5 -38,-55 -77,-110 -116,-166 -3,-5 -10,-9 -7,-16 4,-8 13,-5 20,-5 44,3 89,6 133,11 60,7 121,15 189,24z"/>
  <path class="fil1" d="M1023 459c-48,68 -90,129 -133,190 -6,8 -12,11 -20,3 -63,-51 -127,-102 -196,-158 118,-14 229,-32 350,-35z"/>
  <path class="fil1" d="M1085 464c12,-9 24,-9 35,-9 85,0 170,0 255,0 8,0 18,-3 22,6 4,9 -6,14 -11,20 -42,49 -84,97 -127,145 -6,7 -12,23 -26,8 -50,-57 -99,-113 -149,-170z"/>
  <path class="fil1" d="M1876 503c107,18 207,37 307,69 -17,20 -38,30 -56,42 -41,29 -84,57 -125,86 -12,9 -20,11 -28,-6 -31,-62 -62,-123 -97,-192z"/>
  <path class="fil1" d="M300 573c106,-32 205,-53 311,-70 -35,69 -67,132 -99,196 -6,12 -13,11 -22,4 -61,-42 -122,-84 -190,-130z"/>
  <path class="fil1" d="M846 699c-24,11 -49,8 -73,11 -68,8 -135,18 -202,30 -8,1 -18,6 -23,-2 -4,-6 3,-13 6,-20 28,-55 56,-111 84,-166 6,-12 11,-18 25,-7 59,49 119,97 178,145 2,2 3,5 6,9z"/>
  <path class="fil1" d="M1924 742c-73,-15 -147,-25 -221,-33 -14,-2 -29,-3 -43,-4 -6,-1 -14,0 -16,-7 -3,-7 5,-10 9,-14 57,-46 115,-92 172,-139 11,-9 17,-8 23,5 29,58 59,116 89,175 8,15 1,19 -13,17z"/>
  <path class="fil1" d="M1513 693c-68,-9 -138,-7 -207,-8 -8,0 -18,2 -23,-6 -5,-9 5,-15 10,-20 42,-49 85,-96 126,-145 11,-13 17,-14 28,0 38,55 76,109 114,163 10,15 5,18 -10,17 -12,-1 -25,0 -38,0z"/>
  <path class="fil1" d="M915 694c46,-66 87,-124 128,-183 7,-10 13,-10 22,-1 45,52 91,104 137,156 11,13 4,19 -9,19 -90,-1 -179,6 -277,9z"/>
  <path class="fil1" d="M1027 87c39,-62 90,-86 156,-86 61,0 122,-3 183,6 42,7 65,44 92,76 -142,-17 -284,-17 -431,4z"/>
  <path class="fil1" d="M485 756c-73,17 -137,34 -198,57 -17,6 -23,2 -20,-16 6,-48 12,-96 17,-144 2,-20 6,-32 29,-15 54,39 110,76 172,119z"/>
  <path class="fil1" d="M2008 757c19,-22 42,-33 62,-46 34,-24 69,-46 102,-71 23,-17 28,-11 31,14 5,48 11,97 17,145 1,10 2,22 -13,16 -63,-24 -130,-38 -198,-58z"/>
  <path class="fil1" d="M222 787c-54,-36 -104,-69 -156,-104 54,-42 113,-66 179,-91 -8,66 -15,127 -23,195z"/>
  <path class="fil1" d="M2421 683c-49,33 -95,64 -142,95 -14,9 -16,-1 -17,-11 -6,-51 -13,-103 -19,-154 -1,-7 -7,-22 12,-15 57,21 113,45 165,86z"/>
  <path class="fil1" d="M2410 931c-41,-35 -81,-63 -126,-84 -12,-5 -7,-13 1,-19 39,-26 77,-51 116,-77 11,-7 17,-6 17,9 -1,55 -1,111 -8,171z"/>
  <path class="fil1" d="M72 742c47,32 90,60 132,89 12,8 5,14 -3,18 -41,20 -81,42 -113,75 -8,8 -16,7 -16,-6 0,-56 0,-113 0,-175z"/>
  <path class="fil1" d="M1262 1248c0,10 0,16 1,23 1,6 0,14 9,13 8,-1 8,-8 9,-14 3,-21 7,-42 10,-63 -6,0 -13,0 -19,0 -2,14 -5,28 -10,41z"/>
  <path class="fil1" d="M1272 1207c6,0 13,0 19,0l-19 0z"/>
  <path class="fil1" d="M2463 724c55,64 10,118 0,174 0,-55 0,-110 0,-174z"/>
  <path class="fil1" d="M1260 2049c0,20 0,36 -7,52 -2,5 -5,9 -11,9 -6,0 -9,-6 -10,-10 -5,-33 -7,-65 1,-98 1,-5 3,-11 9,-11 8,0 10,6 11,12 4,16 7,32 6,45z"/>
  <path class="fil1" d="M23 909c-8,-63 -49,-117 0,-175 0,56 0,112 0,175z"/>
  <path class="fil1" d="M1225 1285c-6,-24 -11,-48 -16,-72 -1,-5 2,-10 2,-15 4,1 8,1 11,3 18,14 21,64 3,83z"/>
 </g>
</svg>
